<?xml version="1.0" encoding="UTF-8"?>
<svg xmlns="http://www.w3.org/2000/svg" viewBox="0 0 1024 1024"><path fill="#000000" d="M0 0h1024v1024H0z"/><g fill="none" stroke="#FF0000" stroke-linecap="round" stroke-linejoin="round" transform="matrix(.9 0 0 .9 51.2 1.2)"><circle cx="512" cy="260" r="170" stroke-width="38"/><path fill="#FF0000" d="M591.4 270.37c13.66-8.83 13.62-18.66 0-26.47l-106.82-78.16c-11.14-6.99-22.76-2.88-22.44 11.65l.43 153.55c.96 15.77 9.95 20.1 23.23 12.8z" stroke-width=".8"/><path stroke-width="38" d="M512 450v260m-92-68 92 110 92-110M290 762v90q0 72 72 72h300q72 0 72-72v-90"/></g></svg>